HIERARCHY
ROOT Hips
{
	OFFSET 0.000000 0.000000 0.000000
	CHANNELS 6 Xposition Yposition Zposition Xrotation Yrotation Zrotation
	JOINT LeftUpLeg_virtual
	{
		OFFSET 0.000000 0.000000 0.000000
		CHANNELS 3 Xrotation Yrotation Zrotation
		JOINT LeftUpLeg
		{
			OFFSET 10.205400 -3.823500 0.155100
			CHANNELS 3 Xrotation Yrotation Zrotation
			JOINT LeftLeg
			{
				OFFSET 0.708757 -12.982077 0.567790
				CHANNELS 3 Xrotation Yrotation Zrotation
				JOINT LeftFoot
				{
					OFFSET -0.708756 -10.717838 -2.184338
					CHANNELS 3 Xrotation Yrotation Zrotation
					JOINT LeftToeBase
					{
						OFFSET 0.108149 -7.191104 7.560241
						CHANNELS 3 Xrotation Yrotation Zrotation
						JOINT LeftToe_End
						{
							OFFSET 0.070230 0.081724 4.490308
							CHANNELS 3 Xrotation Yrotation Zrotation
							End Site
							{
								OFFSET 0 0 0
							}
						}
					}
				}
			}
		}
	}
	JOINT RightUpLeg_virtual
	{
		OFFSET 0.000000 0.000000 0.000000
		CHANNELS 3 Xrotation Yrotation Zrotation
		JOINT RightUpLeg
		{
			OFFSET -10.205400 -3.823500 0.005500
			CHANNELS 3 Xrotation Yrotation Zrotation
			JOINT RightLeg
			{
				OFFSET -0.708756 -12.982134 0.610632
				CHANNELS 3 Xrotation Yrotation Zrotation
				JOINT RightFoot
				{
					OFFSET 0.708754 -10.717769 -1.945823
					CHANNELS 3 Xrotation Yrotation Zrotation
					JOINT RightToeBase
					{
						OFFSET -0.108140 -7.191069 7.372968
						CHANNELS 3 Xrotation Yrotation Zrotation
						JOINT RightToe_End
						{
							OFFSET -0.070227 0.081735 4.479403
							CHANNELS 3 Xrotation Yrotation Zrotation
							End Site
							{
								OFFSET 0 0 0
							}
						}
					}
				}
			}
		}
	}
	JOINT Spine_virtual
	{
		OFFSET 0.000000 0.000000 0.000000
		CHANNELS 3 Xrotation Yrotation Zrotation
		JOINT Spine
		{
			OFFSET 0.000000 6.876099 0.125700
			CHANNELS 3 Xrotation Yrotation Zrotation
			JOINT Spine1
			{
				OFFSET 0.000000 5.730043 0.104720
				CHANNELS 3 Xrotation Yrotation Zrotation
				JOINT Spine1_split
				{
					OFFSET 0.000000 5.730043 0.104720
					CHANNELS 3 Xrotation Yrotation Zrotation
					JOINT Spine2
					{
						OFFSET 0.000000 5.730043 0.104720
						CHANNELS 3 Xrotation Yrotation Zrotation
						JOINT Neck_virtual
						{
							OFFSET 0.000000 0.000000 0.000000
							CHANNELS 3 Xrotation Yrotation Zrotation
							JOINT Neck
							{
								OFFSET 0.000000 10.314075 0.188496
								CHANNELS 3 Xrotation Yrotation Zrotation
								JOINT Head
								{
									OFFSET 0.000000 7.643700 -2.377400
									CHANNELS 3 Xrotation Yrotation Zrotation
									JOINT HeadTop_End
									{
										OFFSET 0.000000 43.788605 -13.619600
										CHANNELS 3 Xrotation Yrotation Zrotation
										End Site
										{
											OFFSET 0 0 0
										}
									}
								}
							}
						}
						JOINT LeftShoulder_virtual
						{
							OFFSET 0.000000 0.000000 0.000000
							CHANNELS 3 Xrotation Yrotation Zrotation
							JOINT LeftShoulder
							{
								OFFSET 2.196100 4.412489 0.087492
								CHANNELS 3 Xrotation Yrotation Zrotation
								JOINT LeftShoulder_split
								{
									OFFSET 2.196100 4.412489 0.087492
									CHANNELS 3 Xrotation Yrotation Zrotation
									JOINT LeftArm
									{
										OFFSET 8.771219 -2.981674 -0.026999
										CHANNELS 3 Xrotation Yrotation Zrotation
										JOINT LeftForeArm
										{
											OFFSET 8.512804 0.000000 -0.000000
											CHANNELS 3 Xrotation Yrotation Zrotation
											JOINT LeftHand
											{
												OFFSET 18.484802 0.000000 -0.000000
												CHANNELS 3 Xrotation Yrotation Zrotation
												End Site
												{
													OFFSET 0 0 0
												}
											}
										}
									}
								}
							}
						}
						JOINT RightShoulder_virtual
						{
							OFFSET 0.000000 0.000000 0.000000
							CHANNELS 3 Xrotation Yrotation Zrotation
							JOINT RightShoulder
							{
								OFFSET -2.196100 4.412496 0.070690
								CHANNELS 3 Xrotation Yrotation Zrotation
								JOINT RightShoulder_split
								{
									OFFSET -2.196100 4.412496 0.070690
									CHANNELS 3 Xrotation Yrotation Zrotation
									JOINT RightArm
									{
										OFFSET -8.771282 -2.981682 -0.094208
										CHANNELS 3 Xrotation Yrotation Zrotation
										JOINT RightForeArm
										{
											OFFSET -8.494598 0.000000 0.000000
											CHANNELS 3 Xrotation Yrotation Zrotation
											JOINT RightHand
											{
												OFFSET -18.483803 0.000000 0.000001
												CHANNELS 3 Xrotation Yrotation Zrotation
												End Site
												{
													OFFSET 0 0 0
												}
											}
										}
									}
								}
							}
						}
					}
				}
			}
		}
	}
}
MOTION
Frames: 7
Frame Time: 0.03333333
22.226969 31.555172 9.451887 0.000000 0.000000 0.000000 -10.780357 -56.903853 -11.781969 -9.678662 10.354345 11.158134 50.078192 -12.549219 1.372263 -35.787295 17.434874 0.935989 -3.382261 0.000001 -0.000001 0.000000 0.000000 0.000000 -10.780357 -56.903853 -11.781969 -18.496489 20.038015 -17.289130 55.483256 -2.012945 -8.651317 21.189716 -0.233128 29.988253 -28.531848 -5.507462 16.539546 0.000000 0.000000 0.000000 -10.780357 -56.903853 -11.781969 9.578383 8.091481 0.134677 2.662959 17.145937 -2.401210 0.000000 0.000000 0.000000 0.000000 0.000000 0.000000 3.209016 13.582542 -1.840704 -0.835033 -4.107085 0.327522 1.616706 -45.330149 4.399509 0.000000 0.000000 0.000000 3.209016 13.582542 -1.840704 -6.690980 -24.917024 -29.325755 0.000000 0.000000 0.000000 -17.150506 26.242821 -47.937761 -0.000003 -37.261394 -0.000005 0.000000 0.000000 0.000000 3.209016 13.582542 -1.840704 16.288809 -29.166725 21.993819 0.000000 0.000000 0.000000 17.892154 -24.268781 42.118730 179.999991 66.114544 179.999978 0.000000 0.000000 0.000000 
22.226612 31.772038 10.629717 0.000000 0.000000 0.000000 -11.440350 -54.657619 -12.605859 -7.219418 10.633937 8.839364 48.877588 -12.059052 1.922144 -36.473326 15.721077 2.877529 -3.339874 0.000027 0.000012 0.000000 0.000000 0.000000 -11.440350 -54.657619 -12.605859 -25.427449 22.273430 -10.866892 60.966282 -1.668538 -8.160670 19.797187 7.402404 22.236919 -29.658553 -7.086235 14.553537 0.000000 0.000000 0.000000 -11.440350 -54.657619 -12.605859 10.336941 5.851380 0.555494 2.886332 16.500543 -2.402981 0.000000 0.000000 0.000000 0.000000 0.000000 0.000000 3.439223 13.460940 -1.993052 -0.825259 -4.058136 0.451981 1.734940 -45.565213 4.903149 0.000000 0.000000 0.000000 3.439223 13.460940 -1.993052 -7.018246 -26.326418 -29.169303 0.000000 0.000000 0.000000 -18.434944 23.003970 -47.374032 -0.000013 -36.923285 0.000017 0.000000 0.000000 0.000000 3.439223 13.460940 -1.993052 16.511897 -29.414708 22.476742 0.000000 0.000000 0.000000 18.832104 -26.862728 43.040512 179.999978 65.978644 179.999978 0.000000 0.000000 0.000000 
22.196417 32.035156 11.889935 0.000000 0.000000 0.000000 -11.014777 -51.447218 -12.629413 -5.465319 10.827807 7.285214 47.364599 -11.429635 1.986222 -36.471919 12.396810 4.567415 -3.162162 0.000003 0.000002 0.000000 0.000000 0.000000 -11.014777 -51.447218 -12.629413 -32.534653 22.515973 -4.801286 66.059493 -3.366628 -7.190810 15.932357 15.455262 18.374261 -25.039936 -2.774796 7.413968 0.000000 0.000000 0.000000 -11.014777 -51.447218 -12.629413 10.739221 2.923766 1.288832 3.054877 15.663586 -2.352309 0.000000 0.000000 0.000000 0.000000 0.000000 0.000000 3.615015 13.134264 -2.081371 -0.759838 -3.950809 0.589088 2.105246 -45.390049 5.394832 0.000000 0.000000 0.000000 3.615015 13.134264 -2.081371 -7.328493 -28.082432 -28.771103 0.000000 0.000000 0.000000 -18.947631 20.246125 -47.384502 0.000008 -37.580281 0.000021 0.000000 0.000000 0.000000 3.615015 13.134264 -2.081371 16.552035 -29.563036 22.660638 0.000000 0.000000 0.000000 19.613148 -28.573951 43.849695 179.999964 66.371489 -179.999991 0.000000 0.000000 0.000000 
22.099421 32.267105 13.206349 0.000000 0.000000 0.000000 -9.921887 -47.849768 -12.035745 -3.915437 10.886935 6.252344 45.453420 -11.024528 1.486829 -36.134839 8.442042 6.005090 -2.895738 -0.000021 0.000000 0.000000 0.000000 0.000000 -9.921887 -47.849768 -12.035745 -37.888063 21.316542 -0.202323 66.645120 -5.477529 -5.845354 13.751009 20.956245 16.992787 -19.989312 -0.219192 0.818294 0.000000 0.000000 0.000000 -9.921887 -47.849768 -12.035745 10.903472 -0.257065 2.055892 3.195167 14.763920 -2.286727 0.000000 0.000000 0.000000 0.000000 0.000000 0.000000 3.762186 12.720729 -2.143568 -0.710409 -3.835612 0.741273 2.753894 -45.097728 5.846696 0.000000 0.000000 0.000000 3.762186 12.720729 -2.143568 -7.598372 -30.007681 -28.209166 0.000000 0.000000 0.000000 -18.872559 17.780961 -47.791612 -0.000001 -39.372735 -0.000016 0.000000 0.000000 0.000000 3.762186 12.720729 -2.143568 16.551864 -29.456598 22.826209 0.000000 0.000000 0.000000 19.255370 -29.305084 43.890908 179.999964 67.122291 -179.999978 0.000000 0.000000 0.000000 
21.923607 32.399635 14.568666 0.000000 0.000000 0.000000 -8.688816 -44.587154 -11.241577 -1.966802 11.168080 5.836392 42.948646 -10.907879 0.077887 -35.856700 4.158237 7.190888 -2.702508 0.000024 0.000004 0.000000 0.000000 0.000000 -8.688816 -44.587154 -11.241577 -41.539810 20.076731 2.847742 63.396880 -7.417348 -4.471017 12.449019 21.572517 16.783756 -13.830102 0.241281 -1.535377 0.000000 0.000000 0.000000 -8.688816 -44.587154 -11.241577 11.002877 -3.096520 2.719406 3.318395 13.964359 -2.238367 0.000000 0.000000 0.000000 0.000000 0.000000 0.000000 3.892208 12.370905 -2.214525 -0.705425 -3.750109 0.901800 3.456258 -44.903508 6.310447 0.000000 0.000000 0.000000 3.892208 12.370905 -2.214525 -7.768346 -31.874300 -27.459070 0.000000 0.000000 0.000000 -18.730532 15.025866 -48.431707 0.000020 -41.619679 0.000029 0.000000 0.000000 0.000000 3.892208 12.370905 -2.214525 16.623577 -29.172486 23.168934 0.000000 0.000000 0.000000 16.707768 -28.816172 42.936943 179.999964 68.118037 -179.999991 0.000000 0.000000 0.000000 
21.675024 32.311745 15.981705 0.000000 0.000000 0.000000 -7.285818 -41.660961 -10.120167 -0.008906 11.879444 5.895973 41.038136 -10.990820 -2.253719 -36.286237 -0.797459 8.740059 -2.676872 -0.000010 -0.000001 0.000000 0.000000 0.000000 -7.285818 -41.660961 -10.120167 -44.096698 19.010206 4.669655 57.428292 -8.623731 -2.967704 12.679402 18.732934 16.090474 -8.522004 0.119436 -1.629092 0.000000 0.000000 0.000000 -7.285818 -41.660961 -10.120167 11.003769 -5.666914 3.068770 3.383854 13.256643 -2.218391 0.000000 0.000000 0.000000 0.000000 0.000000 0.000000 3.964100 12.066112 -2.304480 -0.706750 -3.686940 1.097583 4.077658 -44.804798 6.876754 0.000000 0.000000 0.000000 3.964100 12.066112 -2.304480 -7.841358 -33.725094 -26.533873 0.000000 0.000000 0.000000 -18.654145 12.292844 -49.030790 0.000004 -44.715012 -0.000002 0.000000 0.000000 0.000000 3.964100 12.066112 -2.304480 16.751485 -28.858208 23.642908 0.000000 0.000000 0.000000 12.560952 -26.854707 41.389556 -179.999991 69.256820 179.999964 0.000000 0.000000 0.000000 
21.390930 32.085793 17.438749 0.000000 0.000000 0.000000 -5.785065 -38.536351 -8.742850 1.322834 12.630995 5.500298 40.677595 -11.035232 -3.439205 -37.090478 -5.541385 10.008467 -2.737004 -0.000016 0.000003 0.000000 0.000000 0.000000 -5.785065 -38.536351 -8.742850 -44.862096 18.240857 4.811034 48.874959 -9.601276 -1.305696 14.126044 13.629410 16.181779 -4.339889 0.002984 -0.448365 0.000000 0.000000 0.000000 -5.785065 -38.536351 -8.742850 11.037569 -8.307298 3.217946 3.444222 12.537727 -2.259613 0.000000 0.000000 0.000000 0.000000 0.000000 0.000000 4.029725 11.694914 -2.441234 -0.743702 -3.647984 1.351183 4.648062 -44.908873 7.778128 0.000000 0.000000 0.000000 4.029725 11.694914 -2.441234 -7.832321 -35.558791 -25.497644 0.000000 0.000000 0.000000 -18.948178 9.414058 -49.313214 -0.000011 -48.086663 0.000000 0.000000 0.000000 0.000000 4.029725 11.694914 -2.441234 17.066320 -28.807395 24.438176 0.000000 0.000000 0.000000 7.944132 -23.503145 39.614602 -180.000005 71.306430 179.999950 0.000000 0.000000 0.000000 
